<?xml version="1.0" standalone="no"?><!DOCTYPE svg PUBLIC "-//W3C//DTD SVG 1.1//EN" "http://www.w3.org/Graphics/SVG/1.1/DTD/svg11.dtd"><svg t="1738588540284" class="icon" viewBox="0 0 1181 1024" version="1.1" xmlns="http://www.w3.org/2000/svg" p-id="14855" xmlns:xlink="http://www.w3.org/1999/xlink" width="230.6640625" height="200"><path d="M1035.815385 805.966769h-131.072L745.078154 271.675077a570.052923 570.052923 0 0 1-12.760616-58.998154l-1.181538-6.065231a179.830154 179.830154 0 0 0-353.831385 0l-1.181538 6.459077c-3.150769 19.849846-7.483077 39.542154-12.760615 58.998154l-159.586462 533.897846H72.625231a68.765538 68.765538 0 0 0-68.765539 68.765539v44.110769a68.765538 68.765538 0 0 0 68.765539 68.765538H1035.815385a68.765538 68.765538 0 0 0 68.844307-68.844307v-44.032a68.765538 68.765538 0 0 0-68.844307-68.765539zM419.84 288.610462c1.102769-4.174769 1.890462-8.270769 3.150769-12.445539h262.537846c1.181538 4.174769 1.969231 8.270769 3.15077 12.445539l29.932307 100.194461H389.907692l29.932308-100.194461zM294.675692 707.111385h518.931693l29.538461 98.22523H265.294769l29.459693-98.22523z" fill="#F98B21" p-id="14856"></path></svg>