<?xml version="1.0" standalone="no"?><!DOCTYPE svg PUBLIC "-//W3C//DTD SVG 1.1//EN" "http://www.w3.org/Graphics/SVG/1.1/DTD/svg11.dtd"><svg t="1738588442188" class="icon" viewBox="0 0 1024 1024" version="1.1" xmlns="http://www.w3.org/2000/svg" p-id="7563" xmlns:xlink="http://www.w3.org/1999/xlink" width="200" height="200"><path d="M648.499647 121.302336S847.899131-15.197311 931.898913 47.802526s31.499918 262.399321-52.499864 251.899348" fill="#FFC1C0" p-id="7564"></path><path d="M522.499973 551.601223m-440.898859 0a440.898859 440.898859 0 1 0 881.797718 0 440.898859 440.898859 0 1 0-881.797718 0Z" fill="#F7DAD7" p-id="7565"></path><path d="M138.200967 608.201076c0-243.49937 197.399489-440.898859 440.898859-440.898859 107.399722 0 205.699468 38.399901 282.19927 102.199736-80.899791-96.999749-202.599476-158.699589-338.699123-158.69959-243.59937 0-440.998859 197.299489-440.998859 440.79886 0 136.099648 61.69984 257.799333 158.699589 338.699123-63.699835-76.399802-102.099736-174.799548-102.099736-282.09927z" fill="#FFEFEE" p-id="7566"></path><path d="M794.599269 204.90212c58.899848 74.899806 94.099756 169.399562 94.099756 272.099296 0 243.49937-197.399489 440.898859-440.898859 440.898859-102.699734 0-197.09949-35.199909-272.099296-94.099757 80.699791 102.699734 205.999467 168.799563 346.799103 168.799563 243.49937 0 440.898859-197.399489 440.898859-440.898859 0-140.799636-66.099829-266.099311-168.799563-346.799102z" fill="#E8CAC8" p-id="7567"></path><path d="M931.898913 47.802526c-7.79998-5.899985-16.599957-9.999974-26.199932-12.699967 30.199922 82.799786-17.299955 213.699447-85.699778 205.199469L657.899622 115.102352c-5.999984 3.89999-9.499975 6.199984-9.499975 6.199984l230.899402 178.399538c84.099782 10.499973 136.599646-188.899511 52.599864-251.899348z" fill="#FFA6A6" p-id="7568"></path><path d="M375.500353 121.302336S176.100869-15.197311 92.101087 47.802526s-31.499918 262.399321 52.499864 251.899348" fill="#FFC1C0" p-id="7569"></path><path d="M146.700945 102.402385c51.499867-38.5999 146.499621-2.199994 212.199451 31.699918l16.599957-12.899967S176.100869-15.29731 92.101087 47.702527C15.001286 105.602377 53.001188 278.40193 124.701002 298.101879c-29.599923-61.299841-31.09992-155.799597 21.999943-195.699494z" fill="#FFE1E1" p-id="7570"></path><path d="M522.499973 1024C262.000647 1024 50.101195 812.100548 50.101195 551.601223S262.000647 79.302445 522.499973 79.302445s472.398777 211.899452 472.398777 472.398777S782.999299 1024 522.499973 1024z m0-881.697718c-225.699416 0-409.398941 183.599525-409.398941 409.39894S296.800557 961.000163 522.499973 961.000163s409.398941-183.599525 409.39894-409.39894-183.699525-409.298941-409.39894-409.298941z" fill="#383F51" p-id="7571"></path><path d="M885.999032 331.601792c-3.499991 0-6.999982-0.199999-10.499973-0.699998l7.79998-62.499839c17.699954 2.299994 36.099907-22.399942 46.29988-47.699876C949.798867 170.802208 949.198869 100.102391 912.998962 73.002461c-49.799871-37.299903-187.799514 33.899912-246.699361 74.299808l-35.599908-51.999866C652.999635 80.002443 851.599121-51.797216 950.798864 22.602592 1013.998701 70.002469 1017.098693 172.202204 987.998768 244.302018c-22.399942 55.499856-59.999845 87.299774-101.999736 87.299774zM138.000968 331.601792c-41.999891 0-79.599794-31.799918-101.999736-87.299774C6.901307 172.202204 10.001299 70.002469 73.201136 22.602592 172.400879-51.797216 371.000365 80.002443 393.300307 95.302403l-35.599908 51.999866c-58.999847-40.399895-196.99949-111.599711-246.699361-74.299808-36.199906 27.09993-36.799905 97.799747-16.599957 147.799618 10.199974 25.299935 28.499926 50.09987 46.29988 47.699876l7.79998 62.499838c-3.499991 0.399999-6.999982 0.599998-10.499973 0.599999z" fill="#383F51" p-id="7572"></path><path d="M601.899767 743.600726H432.600205c-34.299911 0-62.299839-28.099927-62.299838-62.299839v-34.499911c0-74.699807 61.099842-135.799649 135.799648-135.799648h22.299943c74.699807 0 135.799649 61.099842 135.799648 135.799648v34.499911c0 34.299911-27.999928 62.299839-62.299839 62.299839z" fill="#FFB3B3" p-id="7573"></path><path d="M601.899767 764.600671H432.600205c-45.899881 0-83.299784-37.399903-83.299784-83.299784v-34.499911c0-86.499776 70.299818-156.799594 156.799594-156.799594h22.299943c86.499776 0 156.799594 70.299818 156.799594 156.799594v34.499911c0 45.999881-37.399903 83.299784-83.299785 83.299784zM506.100015 532.001273c-63.299836 0-114.799703 51.499867-114.799703 114.799703v34.499911c0 22.799941 18.499952 41.299893 41.299893 41.299893h169.199563c22.799941 0 41.299893-18.499952 41.299893-41.299893v-34.499911c0-63.299836-51.499867-114.799703-114.799703-114.799703h-22.199943z" fill="#383F51" p-id="7574"></path><path d="M470.000109 627.301027m-20.999946 0a20.999946 20.999946 0 1 0 41.999891 0 20.999946 20.999946 0 1 0-41.999891 0Z" fill="#383F51" p-id="7575"></path><path d="M564.499864 627.301027m-20.999946 0a20.999946 20.999946 0 1 0 41.999892 0 20.999946 20.999946 0 1 0-41.999892 0Z" fill="#383F51" p-id="7576"></path><path d="M690.399538 396.401624m-36.699905 0a36.699905 36.699905 0 1 0 73.39981 0 36.699905 36.699905 0 1 0-73.39981 0Z" fill="#383F51" p-id="7577"></path><path d="M354.500408 396.401624m-36.699905 0a36.699905 36.699905 0 1 0 73.39981 0 36.699905 36.699905 0 1 0-73.39981 0Z" fill="#383F51" p-id="7578"></path></svg>