<?xml version="1.0" standalone="no"?><!DOCTYPE svg PUBLIC "-//W3C//DTD SVG 1.1//EN" "http://www.w3.org/Graphics/SVG/1.1/DTD/svg11.dtd"><svg t="1738588569086" class="icon" viewBox="0 0 1024 1024" version="1.1" xmlns="http://www.w3.org/2000/svg" p-id="16048" xmlns:xlink="http://www.w3.org/1999/xlink" width="200" height="200"><path d="M885.333333 85.333333H138.666667a53.393333 53.393333 0 0 0-53.333334 53.333334v746.666666a53.393333 53.393333 0 0 0 53.333334 53.333334h746.666666a53.393333 53.393333 0 0 0 53.333334-53.333334V138.666667a53.393333 53.393333 0 0 0-53.333334-53.333334z m-544 640V554.666667h341.333334v170.666666z m-213.333333 0V554.666667h170.666667v170.666666z m320-384a21.333333 21.333333 0 0 0 0-42.666666H341.333333V128h341.333334v170.666667H533.333333a21.333333 21.333333 0 0 0-21.333333 21.333333v192H128V341.333333z m277.333333 213.333334h106.666667a21.333333 21.333333 0 0 0 0-42.666667H554.666667V341.333333h341.333333v384h-170.666667z m170.666667-416v160h-170.666667V128h160a10.666667 10.666667 0 0 1 10.666667 10.666667zM138.666667 128h160v170.666667H128V138.666667a10.666667 10.666667 0 0 1 10.666667-10.666667z m-10.666667 757.333333v-117.333333h384v128H138.666667a10.666667 10.666667 0 0 1-10.666667-10.666667z m757.333333 10.666667H554.666667v-128h341.333333v117.333333a10.666667 10.666667 0 0 1-10.666667 10.666667z" fill="#5C5C66" p-id="16049"></path></svg>