<?xml version="1.0" standalone="no"?><!DOCTYPE svg PUBLIC "-//W3C//DTD SVG 1.1//EN" "http://www.w3.org/Graphics/SVG/1.1/DTD/svg11.dtd"><svg t="1738588496201" class="icon" viewBox="0 0 1024 1024" version="1.1" xmlns="http://www.w3.org/2000/svg" p-id="12389" xmlns:xlink="http://www.w3.org/1999/xlink" width="200" height="200"><path d="M344.064 237.056c-3.584 4.096-15.872 9.728-27.648 13.312-12.288 3.584-24.064 8.704-27.136 10.752-10.24 7.68-60.416 15.36-104.448 15.36-56.32 0-93.184-6.656-138.752-25.6l-35.84-14.848V345.6l32.256 16.384c46.592 23.552 71.168 28.672 134.144 29.184 68.096 0 103.936-8.704 155.136-37.376 32.256-18.432 38.4-20.48 48.64-15.36 6.144 3.584 12.288 7.68 13.824 9.216 8.704 10.752 68.096 33.28 103.936 39.936 44.032 7.68 105.472 6.144 144.384-4.096 25.088-6.656 72.192-28.672 90.112-41.984l13.312-9.728 30.208 16.896c16.896 9.216 31.232 18.432 32.768 20.48 4.096 5.632 55.808 19.456 91.136 24.064 28.672 4.096 80.896 0.512 104.448-7.168 8.192-2.56 9.216-9.728 9.216-57.856v-54.784l-58.88 2.048c-56.32 2.048-110.592-4.096-130.048-14.336-46.592-26.112-88.064-36.864-95.232-26.112-1.536 2.56-14.848 8.704-29.696 13.824-14.336 4.608-28.672 10.24-31.744 12.288-25.088 19.456-189.44 19.456-215.04 0-2.56-2.048-17.408-7.68-31.744-12.288-14.848-5.12-27.136-10.752-27.136-12.8 0-7.168-44.544-6.144-50.176 1.024zM337.92 427.52c-12.8 6.656-46.08 18.432-73.728 26.112-42.496 11.264-57.856 12.8-94.72 10.752-24.064-1.536-49.664-4.096-56.832-5.12-25.6-5.12-89.6-29.184-91.136-34.304-1.024-2.56-4.096-5.12-6.656-5.12s-4.608 24.576-4.608 54.784v55.296l16.896 9.728c8.704 5.12 32.768 15.36 52.224 23.04C111.104 574.464 122.368 576 179.2 576c56.832 0 68.096-1.536 99.84-13.824 19.968-7.168 48.64-20.48 63.488-29.184l26.624-15.872 29.184 17.408c15.872 9.728 38.4 20.48 49.664 23.552 11.264 3.584 23.552 9.216 27.648 12.288 4.608 3.584 33.792 5.632 79.36 5.632 79.36 0 83.968-1.024 156.672-37.888l38.4-19.456 20.48 11.776c11.264 7.168 28.672 16.384 38.4 20.48 9.728 4.608 25.088 11.776 33.28 15.872 18.432 9.216 100.864 14.848 142.336 9.728l29.184-3.584v-59.392c0-54.272-0.512-58.88-8.704-55.296-20.48 8.704-102.4 8.704-136.704 0.512-48.128-12.288-73.216-21.504-90.624-34.304-11.776-8.192-19.968-10.24-33.792-8.192-10.24 2.048-19.968 5.632-21.504 8.192-4.608 6.656-25.6 14.848-78.848 29.184-53.76 14.336-114.176 16.384-153.6 4.096-14.848-4.096-35.84-10.24-47.104-13.312-11.264-3.584-29.696-11.264-41.472-17.92-25.6-14.848-34.304-14.336-63.488 1.024zM330.24 614.4c-19.456 10.752-50.688 22.528-69.12 26.112-41.984 8.192-132.608 7.168-166.4-2.048-13.824-4.096-29.184-8.192-33.28-9.216-4.096-1.024-8.704-3.072-10.24-4.608-3.584-4.096-30.72-15.36-35.84-15.36-3.072 0-5.12 37.376-5.12 92.16V793.6h1003.52V639.488l-11.264 3.584c-21.504 7.168-122.88 4.096-157.696-5.12-17.92-4.608-34.304-10.24-35.84-12.288-1.536-2.048-16.384-10.24-32.768-18.944-20.992-10.24-31.232-13.312-32.768-8.704-1.024 3.584-3.584 6.144-6.144 6.144-2.56 0-18.944 6.656-36.864 15.36-18.432 8.192-44.032 17.408-58.368 20.48-31.744 7.168-123.904 7.68-160.256 0.512-28.672-5.632-84.48-28.16-98.304-39.936-10.752-8.704-11.264-8.704-53.248 13.824z" p-id="12390"></path></svg>