<?xml version="1.0" standalone="no"?><!DOCTYPE svg PUBLIC "-//W3C//DTD SVG 1.1//EN" "http://www.w3.org/Graphics/SVG/1.1/DTD/svg11.dtd"><svg t="1733926611671" class="icon" viewBox="0 0 1024 1024" version="1.1" xmlns="http://www.w3.org/2000/svg" p-id="3883" xmlns:xlink="http://www.w3.org/1999/xlink" width="200" height="200"><path d="M512 2.683354c88.014004 0 159.391214 86.500592 159.391214 193.201471s-71.37721 193.201472-159.391214 193.201472S352.608786 302.585705 352.608786 195.884825 423.985996 2.683354 512 2.683354z m-12.354161 378.889553l-5.366707 28.98022h35.420269l-10.733415-30.053562z" fill="#FEDD8E" p-id="3884"></path><path d="M533.46683 413.236481h-42.407723l4.164565-22.540172C413.703385 380.553232 349.925432 297.057996 349.925432 195.884825 349.925432 87.874469 422.633586 0 512 0s162.074568 87.874469 162.074568 195.884825c0 102.471914-65.473832 186.825823-148.475331 195.197887z m-35.999874-5.366708h28.379149l-5.828244-16.336257a137.194512 137.194512 0 0 1-19.481148-0.246869z m4.046497-21.885433a129.99239 129.99239 0 0 0 16.615327 0.268335l-1.073341-2.962422-15.219983 0.84794z m19.266481-8.275463l2.919488 8.168129C604.683039 378.546083 668.70786 296.134922 668.70786 195.884825 668.70786 90.836892 598.414725 5.366708 512 5.366708S355.29214 90.836892 355.29214 195.884825c0 98.564951 61.888871 179.892037 140.908273 189.552111l1.191409-6.440049z" fill="#03016C" p-id="3885"></path><path d="M369.771517 276.385439s291.272685 71.742146 256.52862-210.374936c0 0 41.860319 47.227026 41.860319 120.214249s-26.318334 177.101349-145.974445 199.641521h-2.146683l6.440049 21.46683-30.053562 1.073341 4.293366-19.781684s-91.910233-10.593881-130.947664-112.239321z" fill="#FFC450" p-id="3886"></path><path d="M467.445594 28.44355s-25.931931 12.762031-48.300368 49.373709c0 0-7.513391 9.112669 0 13.95344s40.346907-43.878201 56.8871-49.373709c0 0 12.547362-6.354182 7.513391-12.880098s-12.440028-2.898022-16.100123-1.073342z" fill="#FFFFFF" p-id="3887"></path><path d="M404.139912 115.341279c-10.46508-2.425752-15.74592 10.411413-16.100123 14.565244s0.236135 11.656489 4.293366 13.438236 6.171714-7.899794 8.7048-13.373836c3.284425-7.030387 11.012484-12.804964 3.101957-14.629644z" fill="#FFFFFF" p-id="3888"></path><path d="M533.46683 413.236481h-42.407723l4.164565-22.540172C413.703385 380.553232 349.925432 297.057996 349.925432 195.884825 349.925432 87.874469 422.633586 0 512 0s162.074568 87.874469 162.074568 195.884825c0 102.471914-65.473832 186.825823-148.475331 195.197887z m-35.999874-5.366708h28.379149l-5.828244-16.336257a137.194512 137.194512 0 0 1-19.481148-0.246869z m4.046497-21.885433a129.99239 129.99239 0 0 0 16.615327 0.268335l-1.073341-2.962422-15.219983 0.84794z m19.266481-8.275463l2.919488 8.168129C604.683039 378.546083 668.70786 296.134922 668.70786 195.884825 668.70786 90.836892 598.414725 5.366708 512 5.366708S355.29214 90.836892 355.29214 195.884825c0 98.564951 61.888871 179.892037 140.908273 189.552111l1.191409-6.440049z" fill="#03016C" p-id="3889"></path><path d="M499.538505 392.971793l-4.089431-1.277276c0.075134-0.279069 2.146683-6.676184 12.740564-6.901586 8.694066-0.182468 13.781705 0.944541 16.024988 3.55276a5.055439 5.055439 0 0 1 1.159209 4.293366l-4.228965-0.729872a0.837206 0.837206 0 0 0-0.182468-0.805006c-0.461537-0.525937-2.737021-2.254017-12.676164-2.050082-7.330923 0.193201-8.694066 3.788896-8.747733 3.917696z" fill="#03016C" p-id="3890"></path><path d="M531.878285 395.837615c-3.906963 0-8.307663-1.277276-10.518747-3.917696l-0.794273-0.955274 1.073342-0.644005c0.461537-0.279069 11.280819-6.815719 16.400658-0.858673a3.381026 3.381026 0 0 1 0.955274 3.445426c-0.47227 1.341677-1.974948 2.275484-4.293366 2.694087a16.454325 16.454325 0 0 1-2.822888 0.236135z m-7.878327-4.3685c2.533086 1.889081 7.051854 2.597486 10.282612 2.017882 1.749547-0.311269 2.543819-0.890873 2.683354-1.298743s-0.289802-1.008941-0.568871-1.330943c-3.08049-3.595694-9.660074-0.794273-12.397095 0.611804zM450.7122 1023.9678l-3.01609-1.073342c55.813758-149.25887 68.565056-313.254719 69.455929-424.5495 0.955274-120.707986-11.452554-207.090511-11.592088-207.949184l3.220024-0.472271c0.118068 0.858673 12.568829 87.488066 11.613556 208.357054-0.568871 70.980074-5.570642 139.738331-14.876514 204.332023C493.860528 883.360062 475.431255 957.87143 450.7122 1023.9678z" fill="#03016C" p-id="3891"></path></svg>