<?xml version="1.0" standalone="no"?><!DOCTYPE svg PUBLIC "-//W3C//DTD SVG 1.1//EN" "http://www.w3.org/Graphics/SVG/1.1/DTD/svg11.dtd"><svg t="1733926590384" class="icon" viewBox="0 0 1024 1024" version="1.1" xmlns="http://www.w3.org/2000/svg" p-id="1614" xmlns:xlink="http://www.w3.org/1999/xlink" width="200" height="200"><path d="M336.44 315.59a175.44 204.04 0 1 0 350.88 0 175.44 204.04 0 1 0-350.88 0Z" fill="#EA5504" p-id="1615"></path><path d="M511.88 532.98c-50.81 0-98.46-22.87-134.17-64.41-35.22-40.96-54.61-95.29-54.61-152.98s19.4-112.02 54.61-152.98c35.71-41.53 83.36-64.41 134.17-64.41 50.81 0 98.46 22.87 134.17 64.41 35.22 40.96 54.61 95.29 54.61 152.98s-19.39 112.02-54.61 152.98c-35.71 41.53-83.36 64.41-134.17 64.41z m0-408.09c-89.38 0-162.09 85.54-162.09 190.69 0 105.15 72.71 190.69 162.09 190.69s162.09-85.54 162.09-190.69c-0.01-105.14-72.72-190.69-162.09-190.69z" p-id="1616"></path><path d="M511.88 525.35l-35.28 43.86h70.56l-35.28-43.86z" fill="#EA5504" p-id="1617"></path><path d="M547.15 580.65H476.6c-4.4 0-8.42-2.53-10.32-6.5s-1.36-8.68 1.4-12.11l35.28-43.86a11.44 11.44 0 0 1 8.92-4.27c3.46 0 6.74 1.57 8.92 4.27l35.28 43.86c2.76 3.43 3.31 8.14 1.4 12.11s-5.92 6.5-10.33 6.5z m-46.67-22.88h22.78l-11.39-14.16-11.39 14.16z" p-id="1618"></path><path d="M504.74 921.99c-0.55 0-1.11-0.05-1.67-0.15-5.19-0.92-8.65-5.86-7.73-11.05 0.1-0.59 10.18-60.35-16.42-86.95-18.86-18.86-20.59-41.37-4.74-61.75 7.41-9.53 15.2-19.81 21.95-30.42 0.98-1.55 2.28-3.46 3.66-5.48 2.71-3.99 6.42-9.45 7.75-12.29 8.98-19.21 9.28-26.21 9.08-28.16-2.27-0.51-7.69-0.03-11.07 0.26-9.8 0.86-22.01 1.93-30.23-6.21-5.38-5.32-7.6-13.04-6.79-23.6 4.01-52.18 35.37-88.01 36.7-89.51 3.5-3.94 9.53-4.29 13.46-0.79 3.93 3.49 4.29 9.51 0.8 13.45-0.39 0.45-28.46 32.82-31.96 78.31-0.39 5.08 0.4 7.8 1.19 8.59 1.95 1.93 9.9 1.23 15.15 0.77 9.73-0.85 21.85-1.91 28.39 7.45 6.28 8.98 4.12 22.75-7.47 47.53-1.97 4.22-5.84 9.91-9.24 14.92-1.29 1.9-2.51 3.7-3.35 5.01-7.18 11.28-15.29 21.99-22.99 31.89-9.83 12.64-8.79 24.6 3.17 36.56 33.63 33.63 22.22 100.9 21.72 103.75-0.8 4.62-4.83 7.87-9.36 7.87z" p-id="1619"></path><path d="M430.35 235.5m-26.7 0a26.7 26.7 0 1 0 53.4 0 26.7 26.7 0 1 0-53.4 0Z" fill="#FFFFFF" p-id="1620"></path><path d="M407.47 300.33m-9.53 0a9.53 9.53 0 1 0 19.06 0 9.53 9.53 0 1 0-19.06 0Z" fill="#FFFFFF" p-id="1621"></path></svg>