<?xml version="1.0" standalone="no"?><!DOCTYPE svg PUBLIC "-//W3C//DTD SVG 1.1//EN" "http://www.w3.org/Graphics/SVG/1.1/DTD/svg11.dtd"><svg t="1733926887612" class="icon" viewBox="0 0 1024 1024" version="1.1" xmlns="http://www.w3.org/2000/svg" p-id="5397" xmlns:xlink="http://www.w3.org/1999/xlink" width="200" height="200"><path d="M507.77 182.77L206 877.22s75.43 79.43 301.72 79.43 301.72-79.43 301.72-79.43z" fill="#F7BFA8" p-id="5398"></path><path d="M507.77 960c-225.14 0-301-77.19-304.15-80.48l-1.53-1.61 305.68-703.55 305.67 703.55-1.53 1.61c-3.11 3.29-79 80.48-304.14 80.48z m-297.72-83.6c12 10.87 93.08 76.89 297.71 76.89s285.76-66 297.71-76.89l-297.7-685.22z" fill="#251D12" p-id="5399"></path><path d="M380.01 476.82l204.88-116.55-26.14-60.17-135.43 77.04-43.31 99.68z" fill="#FBE6D0" p-id="5400"></path><path d="M372.93 484.71l47.76-109.93 139.65-79.44 28.83 66.36z m53-105.21l-38.86 89.44 193.54-110.09-23.46-54z" fill="#251D12" p-id="5401"></path><path d="M269.66 730.81L651.5 513.59l-26.14-60.17-312.39 177.71-43.31 99.68z" fill="#FBE6D0" p-id="5402"></path><path d="M262.57 738.7l47.76-109.93 316.61-180.11L655.78 515l-2.62 1.49z m53-105.21l-38.86 89.44 370.51-210.76-23.46-54z" fill="#251D12" p-id="5403"></path><path d="M692 606.74L210 880.89c8 6.88 28.51 22.39 65.81 37.61l442.3-251.59z" fill="#FBE6D0" p-id="5404"></path><path d="M276.09 922.22l-1.51-0.62c-37-15.1-57.69-30.39-66.73-38.17l-3.6-3.1L693.56 602l28.83 66.36-2.62 1.49z m-60.16-40.82c9.16 7.23 28.3 20.41 59.68 33.38l438.23-249.3-23.46-54z" fill="#251D12" p-id="5405"></path><path d="M757.83 758.32L417.41 952a836 836 0 0 0 90.36 4.67c11.92 0 23.4-0.23 34.5-0.65L784 818.5z" fill="#FBE6D0" p-id="5406"></path><path d="M507.77 960a844.29 844.29 0 0 1-90.77-4.69l-10.31-1.12 352.73-200.63 28.83 66.36-245 139.39h-0.82c-11.54 0.47-23.19 0.69-34.66 0.69z m-79.58-10.3c25.33 2.39 52 3.59 79.58 3.59 11.12 0 22.4-0.21 33.56-0.62l238.37-135.6-23.46-54z" fill="#251D12" p-id="5407"></path><path d="M538.48 161.46c0-4.11 57.63 16.42 60.79 18.16 29.62 16.32 49.75 42.89 63.46 73.29 13.3 29.48 18.54 61.81 40.39 86.8 26.94 30.81 69.63 44.1 109.77 40.25 1.66-0.16 3.32-0.31 5-0.59 0 0-12.29 76.42-49.17 97.44 0 0-88-10.27-117.19-125.38S609 183.81 538.48 176z" fill="#FBE6D0" p-id="5408"></path><path d="M769.39 480.28l-1.09-0.13c-0.9-0.1-90.61-11.88-120-127.88-28.81-113.56-42-165.38-110.14-172.95l-3-0.33v-17.53c0-1.45 1-3.89 4.69-3.89 9.41 0 57.72 17.27 61.07 19.12 27.5 15.15 49.34 40.34 64.9 74.85 4.32 9.58 7.83 19.53 11.22 29.15 7.31 20.74 14.21 40.32 28.64 56.82 22.1 25.26 56.24 39.75 93.68 39.75 4.42 0 8.88-0.21 13.25-0.63 1.69-0.16 3.22-0.31 4.73-0.56l4.6-0.77-0.74 4.6c-0.51 3.19-13 78.25-50.82 99.82zM541.83 173c70.19 9.2 83.73 62.55 112.91 177.57C681.34 455.4 758.06 471.66 768 473.33c29.38-17.81 42.48-73.89 45.72-90.07h-0.34c-4.75 0.46-9.43 0.68-14.06 0.68-39.37 0-75.36-15.33-98.73-42-15.27-17.46-22.72-38.58-29.92-59-3.35-9.49-6.81-19.31-11-28.63-15-33.16-35.82-57.3-62-71.73-3.12-1.61-44.16-16.16-55.82-18.08z" fill="#251D12" p-id="5409"></path><path d="M507.77 71.58l24.59 49.82 54.98 7.99-39.79 38.78 9.39 54.76-49.17-25.86-49.18 25.86 9.39-54.76-39.78-38.78 54.98-7.99 24.59-49.82z" fill="#FEECAF" p-id="5410"></path><path d="M561.4 229.06l-53.63-28.2-53.63 28.2 10.24-59.72L421 127l60-8.71L507.77 64l26.81 54.33 60 8.71-43.38 42.29z m-53.63-35.77l44.72 23.51L544 167l36.18-35.27-50-7.27-22.41-45.31-22.37 45.31-50 7.27L471.58 167 463 216.8z" fill="#251D12" p-id="5411"></path></svg>